<mxfile host="42.csdc.com" agent="Mozilla/5.0 (X11; Linux x86_64) AppleWebKit/537.36 (KHTML, like Gecko) Chrome/131.0.0.0 Safari/537.36" version="24.7.17" pages="2">
  <diagram name="Page-1" id="emMd2tQL3pn0CTmbrhhY">
    <mxGraphModel dx="683" dy="448" grid="1" gridSize="10" guides="1" tooltips="1" connect="1" arrows="1" fold="1" page="1" pageScale="1" pageWidth="850" pageHeight="1100" background="#000000" math="0" shadow="0">
      <root>
        <mxCell id="0" />
        <mxCell id="1" parent="0" />
        <mxCell id="ail2-RJkpHPSvwyS37TF-15" value="webhook" style="edgeStyle=orthogonalEdgeStyle;rounded=1;hachureGap=4;orthogonalLoop=1;jettySize=auto;html=1;exitX=1;exitY=0.5;exitDx=0;exitDy=0;fontFamily=Architects Daughter;fontSource=https%3A%2F%2Ffonts.googleapis.com%2Fcss%3Ffamily%3DArchitects%2BDaughter;fontColor=#FFFFFF;labelBorderColor=none;textShadow=0;strokeColor=#99CCFF;labelBackgroundColor=none;" parent="1" source="ail2-RJkpHPSvwyS37TF-4" target="ail2-RJkpHPSvwyS37TF-5" edge="1">
          <mxGeometry x="0.1429" y="10" relative="1" as="geometry">
            <mxPoint as="offset" />
          </mxGeometry>
        </mxCell>
        <mxCell id="ail2-RJkpHPSvwyS37TF-4" value="Code Base" style="rounded=1;whiteSpace=wrap;html=1;hachureGap=4;fontFamily=Architects Daughter;fontSource=https%3A%2F%2Ffonts.googleapis.com%2Fcss%3Ffamily%3DArchitects%2BDaughter;labelBorderColor=none;fillColor=none;strokeColor=#FFFFFF;fontColor=#FFFFFF;" parent="1" vertex="1">
          <mxGeometry x="90" y="270" width="120" height="60" as="geometry" />
        </mxCell>
        <mxCell id="ail2-RJkpHPSvwyS37TF-5" value="Neutron Api Server" style="rounded=1;whiteSpace=wrap;html=1;hachureGap=4;fontFamily=Architects Daughter;fontSource=https%3A%2F%2Ffonts.googleapis.com%2Fcss%3Ffamily%3DArchitects%2BDaughter;labelBorderColor=none;fillColor=none;strokeColor=#FFFFFF;fontColor=#FFFFFF;" parent="1" vertex="1">
          <mxGeometry x="280" y="270" width="120" height="60" as="geometry" />
        </mxCell>
        <mxCell id="ail2-RJkpHPSvwyS37TF-6" value="" style="whiteSpace=wrap;html=1;shape=mxgraph.basic.cloud_rect;hachureGap=4;fontFamily=Architects Daughter;fontSource=https%3A%2F%2Ffonts.googleapis.com%2Fcss%3Ffamily%3DArchitects%2BDaughter;rounded=1;labelBorderColor=default;fillColor=none;strokeColor=#FFFFFF;fontColor=#FFFFFF;" parent="1" vertex="1">
          <mxGeometry x="520" y="185" width="180" height="230" as="geometry" />
        </mxCell>
        <mxCell id="ail2-RJkpHPSvwyS37TF-7" value="Neutron Worker" style="ellipse;whiteSpace=wrap;html=1;hachureGap=4;fontFamily=Architects Daughter;fontSource=https%3A%2F%2Ffonts.googleapis.com%2Fcss%3Ffamily%3DArchitects%2BDaughter;rounded=1;labelBorderColor=none;fillColor=none;strokeColor=#FFFFFF;fontColor=#FFFFFF;" parent="1" vertex="1">
          <mxGeometry x="550" y="210" width="120" height="50" as="geometry" />
        </mxCell>
        <mxCell id="ail2-RJkpHPSvwyS37TF-8" value="Neutron Worker" style="ellipse;whiteSpace=wrap;html=1;hachureGap=4;fontFamily=Architects Daughter;fontSource=https%3A%2F%2Ffonts.googleapis.com%2Fcss%3Ffamily%3DArchitects%2BDaughter;rounded=1;labelBorderColor=none;fillColor=none;strokeColor=#FFFFFF;fontColor=#FFFFFF;" parent="1" vertex="1">
          <mxGeometry x="550" y="275" width="120" height="50" as="geometry" />
        </mxCell>
        <mxCell id="ail2-RJkpHPSvwyS37TF-9" value="Neutron Worker" style="ellipse;whiteSpace=wrap;html=1;hachureGap=4;fontFamily=Architects Daughter;fontSource=https%3A%2F%2Ffonts.googleapis.com%2Fcss%3Ffamily%3DArchitects%2BDaughter;rounded=1;labelBorderColor=none;fillColor=none;strokeColor=#FFFFFF;fontColor=#FFFFFF;" parent="1" vertex="1">
          <mxGeometry x="550" y="340" width="120" height="50" as="geometry" />
        </mxCell>
        <mxCell id="ail2-RJkpHPSvwyS37TF-10" value="submit job" style="endArrow=classic;html=1;rounded=1;hachureGap=4;fontFamily=Architects Daughter;fontSource=https%3A%2F%2Ffonts.googleapis.com%2Fcss%3Ffamily%3DArchitects%2BDaughter;exitX=1;exitY=0.5;exitDx=0;exitDy=0;entryX=0;entryY=0.5;entryDx=0;entryDy=0;fontColor=#FFFFFF;labelBorderColor=none;textShadow=0;strokeColor=#99FF99;labelBackgroundColor=none;" parent="1" source="ail2-RJkpHPSvwyS37TF-5" target="ail2-RJkpHPSvwyS37TF-7" edge="1">
          <mxGeometry x="-0.1319" y="13" width="50" height="50" relative="1" as="geometry">
            <mxPoint x="410" y="430" as="sourcePoint" />
            <mxPoint x="460" y="380" as="targetPoint" />
            <mxPoint as="offset" />
          </mxGeometry>
        </mxCell>
        <mxCell id="ail2-RJkpHPSvwyS37TF-11" value="submit job" style="endArrow=classic;html=1;rounded=1;hachureGap=4;fontFamily=Architects Daughter;fontSource=https%3A%2F%2Ffonts.googleapis.com%2Fcss%3Ffamily%3DArchitects%2BDaughter;exitX=1;exitY=0.5;exitDx=0;exitDy=0;entryX=0;entryY=0.5;entryDx=0;entryDy=0;fontColor=#FFFFFF;labelBorderColor=none;textShadow=0;strokeColor=#99FF99;labelBackgroundColor=none;" parent="1" source="ail2-RJkpHPSvwyS37TF-5" target="ail2-RJkpHPSvwyS37TF-8" edge="1">
          <mxGeometry x="-0.0667" y="10" width="50" height="50" relative="1" as="geometry">
            <mxPoint x="410" y="310" as="sourcePoint" />
            <mxPoint x="560" y="245" as="targetPoint" />
            <mxPoint as="offset" />
          </mxGeometry>
        </mxCell>
        <mxCell id="ail2-RJkpHPSvwyS37TF-12" value="submit job" style="endArrow=classic;html=1;rounded=1;hachureGap=4;fontFamily=Architects Daughter;fontSource=https%3A%2F%2Ffonts.googleapis.com%2Fcss%3Ffamily%3DArchitects%2BDaughter;exitX=1;exitY=0.5;exitDx=0;exitDy=0;entryX=0;entryY=0.5;entryDx=0;entryDy=0;fontColor=#FFFFFF;labelBorderColor=none;textShadow=0;strokeColor=#99FF99;labelBackgroundColor=none;" parent="1" source="ail2-RJkpHPSvwyS37TF-5" target="ail2-RJkpHPSvwyS37TF-9" edge="1">
          <mxGeometry x="-0.0047" y="13" width="50" height="50" relative="1" as="geometry">
            <mxPoint x="420" y="320" as="sourcePoint" />
            <mxPoint x="570" y="255" as="targetPoint" />
            <mxPoint as="offset" />
          </mxGeometry>
        </mxCell>
        <mxCell id="ail2-RJkpHPSvwyS37TF-13" value="report pipeline status" style="curved=1;endArrow=classic;html=1;rounded=1;hachureGap=4;fontFamily=Architects Daughter;fontSource=https%3A%2F%2Ffonts.googleapis.com%2Fcss%3Ffamily%3DArchitects%2BDaughter;exitX=0.5;exitY=1;exitDx=0;exitDy=0;fontColor=#FFFFFF;labelBorderColor=none;textShadow=0;strokeColor=#99CCFF;labelBackgroundColor=none;" parent="1" source="ail2-RJkpHPSvwyS37TF-9" edge="1">
          <mxGeometry x="-0.213" y="-10" width="50" height="50" relative="1" as="geometry">
            <mxPoint x="609.9999999999998" y="350" as="sourcePoint" />
            <mxPoint x="210" y="330" as="targetPoint" />
            <Array as="points">
              <mxPoint x="570" y="410" />
              <mxPoint x="320" y="390" />
              <mxPoint x="250" y="360" />
            </Array>
            <mxPoint as="offset" />
          </mxGeometry>
        </mxCell>
        <mxCell id="ail2-RJkpHPSvwyS37TF-18" value="Neutron&lt;div&gt;DB&lt;/div&gt;" style="shape=cylinder3;whiteSpace=wrap;html=1;boundedLbl=1;backgroundOutline=1;size=15;hachureGap=4;fontFamily=Architects Daughter;fontSource=https%3A%2F%2Ffonts.googleapis.com%2Fcss%3Ffamily%3DArchitects%2BDaughter;rounded=1;labelBorderColor=none;fillColor=none;strokeColor=#FFFFFF;fontColor=#FFFFFF;" parent="1" vertex="1">
          <mxGeometry x="310" y="160" width="60" height="70" as="geometry" />
        </mxCell>
        <mxCell id="ail2-RJkpHPSvwyS37TF-19" value="query" style="endArrow=classic;startArrow=classic;html=1;rounded=1;hachureGap=4;fontFamily=Architects Daughter;fontSource=https%3A%2F%2Ffonts.googleapis.com%2Fcss%3Ffamily%3DArchitects%2BDaughter;entryX=0.5;entryY=1;entryDx=0;entryDy=0;entryPerimeter=0;exitX=0.5;exitY=0;exitDx=0;exitDy=0;fontColor=#FFFFFF;labelBorderColor=none;fillColor=none;strokeColor=#FFFFFF;labelBackgroundColor=none;" parent="1" source="ail2-RJkpHPSvwyS37TF-5" target="ail2-RJkpHPSvwyS37TF-18" edge="1">
          <mxGeometry width="50" height="50" relative="1" as="geometry">
            <mxPoint x="220" y="260" as="sourcePoint" />
            <mxPoint x="270" y="210" as="targetPoint" />
          </mxGeometry>
        </mxCell>
        <mxCell id="rhkKKqV8H71evrODDRIL-1" value="loot pipeline logs" style="curved=1;endArrow=classic;html=1;rounded=1;hachureGap=4;fontFamily=Architects Daughter;fontSource=https%3A%2F%2Ffonts.googleapis.com%2Fcss%3Ffamily%3DArchitects%2BDaughter;exitX=1;exitY=0;exitDx=0;exitDy=0;fontColor=#FFFFFF;labelBorderColor=none;textShadow=0;strokeColor=#99FF99;labelBackgroundColor=none;" edge="1" parent="1" source="ail2-RJkpHPSvwyS37TF-5">
          <mxGeometry x="0.5621" y="22" width="50" height="50" relative="1" as="geometry">
            <mxPoint x="460" y="280" as="sourcePoint" />
            <mxPoint x="370" y="195" as="targetPoint" />
            <Array as="points">
              <mxPoint x="460" y="230" />
              <mxPoint x="520" y="210" />
              <mxPoint x="550" y="180" />
            </Array>
            <mxPoint as="offset" />
          </mxGeometry>
        </mxCell>
      </root>
    </mxGraphModel>
  </diagram>
  <diagram id="ElhnMctiS3PiFvYgQPL5" name="Page-2">
    <mxGraphModel dx="1434" dy="940" grid="1" gridSize="10" guides="1" tooltips="1" connect="1" arrows="1" fold="1" page="1" pageScale="1" pageWidth="850" pageHeight="1100" math="0" shadow="0">
      <root>
        <mxCell id="0" />
        <mxCell id="1" parent="0" />
      </root>
    </mxGraphModel>
  </diagram>
</mxfile>
